<svg width="1355" height="30" viewBox="0 0 1355 30" fill="none" xmlns="http://www.w3.org/2000/svg">
<path d="M0.586003 13.3186C-0.195334 14.0999 -0.195334 15.3667 0.586003 16.1481L13.3186 28.8807C14.1 29.662 15.3668 29.662 16.1481 28.8807C16.9294 28.0994 16.9294 26.8326 16.1481 26.0512L4.83021 14.7333L16.1481 3.41546C16.9294 2.63412 16.9294 1.36732 16.1481 0.585986C15.3668 -0.195351 14.1 -0.195351 13.3186 0.585986L0.586003 13.3186ZM1354.41 16.1481C1355.2 15.3667 1355.2 14.0999 1354.41 13.3186L1341.68 0.585986C1340.9 -0.195351 1339.63 -0.195351 1338.85 0.585986C1338.07 1.36732 1338.07 2.63412 1338.85 3.41546L1350.17 14.7333L1338.85 26.0512C1338.07 26.8326 1338.07 28.0994 1338.85 28.8807C1339.63 29.662 1340.9 29.662 1341.68 28.8807L1354.41 16.1481ZM2.00074 14.7333V16.7341H1353V14.7333V12.7326H2.00074V14.7333Z" fill="black"/>
</svg>
