<svg width="249" height="60" viewBox="0 0 249 60" fill="none" xmlns="http://www.w3.org/2000/svg">
<rect width="249" height="60" rx="10" fill="#EDEBEB" fill-opacity="0.66"/>
<path d="M42.6667 45L32.1667 34.5C31.3333 35.1667 30.375 35.6944 29.2917 36.0833C28.2083 36.4722 27.0556 36.6667 25.8333 36.6667C22.8056 36.6667 20.2433 35.6178 18.1467 33.52C16.05 31.4222 15.0011 28.86 15 25.8333C14.9989 22.8067 16.0478 20.2444 18.1467 18.1467C20.2456 16.0489 22.8078 15 25.8333 15C28.8589 15 31.4217 16.0489 33.5217 18.1467C35.6217 20.2444 36.67 22.8067 36.6667 25.8333C36.6667 27.0556 36.4722 28.2083 36.0833 29.2917C35.6944 30.375 35.1667 31.3333 34.5 32.1667L45 42.6667L42.6667 45ZM25.8333 33.3333C27.9167 33.3333 29.6878 32.6044 31.1467 31.1467C32.6056 29.6889 33.3344 27.9178 33.3333 25.8333C33.3322 23.7489 32.6033 21.9783 31.1467 20.5217C29.69 19.065 27.9189 18.3356 25.8333 18.3333C23.7478 18.3311 21.9772 19.0606 20.5217 20.5217C19.0661 21.9828 18.3367 23.7533 18.3333 25.8333C18.33 27.9133 19.0594 29.6844 20.5217 31.1467C21.9839 32.6089 23.7544 33.3378 25.8333 33.3333Z" fill="black"/>
<path d="M91.3335 31.6667H81.3335V28.3334H91.3335V18.3334H94.6668V28.3334H104.667V31.6667H94.6668V41.6667H91.3335V31.6667Z" fill="black"/>
<path d="M156 30H164.333V38.3333H156V30ZM167.667 15H166V11.6666H162.667V15H149.333V11.6666H146V15H144.333C142.5 15 141 16.5 141 18.3333V41.6666C141 43.5 142.5 45 144.333 45H167.667C169.5 45 171 43.5 171 41.6666V18.3333C171 16.5 169.5 15 167.667 15ZM167.667 18.3333V21.6666H144.333V18.3333H167.667ZM144.333 41.6666V25H167.667V41.6666H144.333Z" fill="black"/>
<path d="M209 41.6667C209 42.5507 209.351 43.3986 209.976 44.0237C210.602 44.6488 211.449 45 212.333 45H225.667C226.551 45 227.399 44.6488 228.024 44.0237C228.649 43.3986 229 42.5507 229 41.6667V21.6667H209V41.6667ZM212.333 25H225.667V41.6667H212.333V25ZM224.833 16.6667L223.167 15H214.833L213.167 16.6667H207.333V20H230.667V16.6667H224.833Z" fill="black"/>
</svg>
